<svg xmlns="http://www.w3.org/2000/svg" viewBox="0 0 750 500"><g id="freepik--background-complete--inject-65"><rect x="94.07" y="275.68" width="36.86" height="11.19" style="fill:#ebebeb"></rect><rect x="73.51" y="289.79" width="36.86" height="11.19" style="fill:#dbdbdb"></rect><rect x="114.63" y="289.79" width="36.86" height="11.19" style="fill:#ebebeb"></rect><rect x="94.07" y="379.26" width="36.86" height="11.19" style="fill:#dbdbdb"></rect><rect x="526.81" y="289.79" width="36.86" height="11.19" style="fill:#ebebeb"></rect><rect x="624.27" y="316.57" width="36.86" height="11.19" style="fill:#ebebeb"></rect><rect x="644.83" y="330.68" width="36.86" height="11.19" style="fill:#dbdbdb"></rect><rect x="237.4" y="430.38" width="36.86" height="11.19" transform="translate(511.66 871.96) rotate(180)" style="fill:#dbdbdb"></rect><rect x="624.27" y="430.38" width="36.86" height="11.19" transform="translate(1285.41 871.96) rotate(180)" style="fill:#ebebeb"></rect><rect x="58.34" y="256.71" width="633.29" height="7.55" style="fill:#ebebeb"></rect><path d="M102.74,256.71a8.94,8.94,0,0,1,.75,3.77,8.8,8.8,0,0,1-.75,3.78,8.8,8.8,0,0,1-.75-3.78A8.94,8.94,0,0,1,102.74,256.71Z" style="fill:#dbdbdb"></path><path d="M152.24,256.71a8.94,8.94,0,0,1,.75,3.77,8.8,8.8,0,0,1-.75,3.78,8.8,8.8,0,0,1-.75-3.78A8.94,8.94,0,0,1,152.24,256.71Z" style="fill:#dbdbdb"></path><path d="M201.74,256.71a8.94,8.94,0,0,1,.75,3.77,8.8,8.8,0,0,1-.75,3.78,9.88,9.88,0,0,1,0-7.55Z" style="fill:#dbdbdb"></path><path d="M251.24,256.71a8.94,8.94,0,0,1,.75,3.77,8.8,8.8,0,0,1-.75,3.78,9.88,9.88,0,0,1,0-7.55Z" style="fill:#dbdbdb"></path><path d="M300.74,256.71a9.1,9.1,0,0,1,.75,3.77,9,9,0,0,1-.75,3.78,9.76,9.76,0,0,1,0-7.55Z" style="fill:#dbdbdb"></path><path d="M350.24,256.71a9.1,9.1,0,0,1,.75,3.77,9,9,0,0,1-.75,3.78,9.76,9.76,0,0,1,0-7.55Z" style="fill:#dbdbdb"></path><path d="M399.74,256.71a9.1,9.1,0,0,1,.75,3.77,9,9,0,0,1-.75,3.78,8.82,8.82,0,0,1-.76-3.78A9,9,0,0,1,399.74,256.71Z" style="fill:#dbdbdb"></path><path d="M449.23,256.71a9,9,0,0,1,.76,3.77,8.82,8.82,0,0,1-.76,3.78,9,9,0,0,1-.75-3.78A9.1,9.1,0,0,1,449.23,256.71Z" style="fill:#dbdbdb"></path><path d="M498.73,256.71a9.76,9.76,0,0,1,0,7.55,9,9,0,0,1-.75-3.78A9.1,9.1,0,0,1,498.73,256.71Z" style="fill:#dbdbdb"></path><path d="M548.23,256.71a9.76,9.76,0,0,1,0,7.55,9,9,0,0,1-.75-3.78A9.1,9.1,0,0,1,548.23,256.71Z" style="fill:#dbdbdb"></path><path d="M597.73,256.71a9.88,9.88,0,0,1,0,7.55,8.8,8.8,0,0,1-.75-3.78A8.94,8.94,0,0,1,597.73,256.71Z" style="fill:#dbdbdb"></path><path d="M647.23,256.71a8.94,8.94,0,0,1,.75,3.77,8.8,8.8,0,0,1-.75,3.78,8.8,8.8,0,0,1-.75-3.78A8.94,8.94,0,0,1,647.23,256.71Z" style="fill:#dbdbdb"></path><path d="M560,123.31c6.95,0,123.76.77,131.1.54.53,0,.81-.8.29-1.06-4.63-2.29-9.88-1.83-14.69-3.45-2.83-1-4.56-2.8-6.53-4.92a13.48,13.48,0,0,0-6.08-4,12.78,12.78,0,0,0-6.61-.21c-2.37.57-4.43,1.92-6.69,2.78-5.62,2.12-11.07.1-15.08-4-3.3-3.42-6.55-6.65-11-8.49a14.65,14.65,0,0,0-11.7-.17c-4.29,2-7.23,5.85-11.25,8.2-4.77,2.79-10.48,2.13-15.75,3s-9.31,5.28-13.94,7.83a9.73,9.73,0,0,1-5,1.56,28.7,28.7,0,0,1-3.07-.43c-1.59-.2-3.1-.15-4.17,1.18C559.46,121.94,559.51,123.31,560,123.31Z" style="fill:#ebebeb"></path><path d="M64,84c5.07,0,90.36.56,95.72.39.38,0,.59-.57.21-.76-3.38-1.68-7.21-1.34-10.73-2.52a11.42,11.42,0,0,1-4.76-3.6,9.92,9.92,0,0,0-4.44-2.9,9.31,9.31,0,0,0-4.83-.15,40,40,0,0,0-4.89,2c-4.09,1.55-8.08.08-11-3-2.41-2.49-4.79-4.85-8.07-6.2a10.7,10.7,0,0,0-8.54-.12c-3.13,1.42-5.27,4.27-8.21,6-3.49,2-7.65,1.55-11.5,2.16s-6.8,3.86-10.17,5.72a7.17,7.17,0,0,1-3.68,1.14c-.76,0-1.5-.22-2.24-.31a3.06,3.06,0,0,0-3,.86C63.59,83,63.63,84,64,84Z" style="fill:#ebebeb"></path><path d="M363.81,144c5.07,0,90.35.56,95.71.39a.41.41,0,0,0,.21-.76c-3.38-1.68-7.21-1.34-10.72-2.52a11.39,11.39,0,0,1-4.77-3.6,9.87,9.87,0,0,0-4.44-2.9,9.31,9.31,0,0,0-4.83-.15,39.86,39.86,0,0,0-4.88,2c-4.1,1.54-8.08.08-11-3-2.41-2.5-4.78-4.85-8.06-6.2a10.73,10.73,0,0,0-8.55-.12c-3.12,1.42-5.27,4.27-8.21,6-3.48,2-7.65,1.56-11.49,2.17s-6.81,3.86-10.18,5.72a7.11,7.11,0,0,1-3.68,1.14c-.75,0-1.49-.22-2.24-.31a3.05,3.05,0,0,0-3,.85C363.44,143,363.47,144,363.81,144Z" style="fill:#ebebeb"></path><path d="M139.67,185.23c5.07,0,90.36.56,95.72.39.38,0,.59-.58.21-.77-3.38-1.67-7.21-1.34-10.72-2.52a11.39,11.39,0,0,1-4.77-3.6,9.9,9.9,0,0,0-4.44-2.89,9.42,9.42,0,0,0-4.83-.16,43.42,43.42,0,0,0-4.89,2c-4.09,1.55-8.08.08-11-3-2.41-2.5-4.79-4.86-8.06-6.2a10.69,10.69,0,0,0-8.55-.12c-3.13,1.41-5.27,4.26-8.21,6-3.49,2-7.65,1.55-11.5,2.17s-6.8,3.85-10.17,5.72a7.27,7.27,0,0,1-3.68,1.14c-.76,0-1.5-.23-2.24-.32a3.08,3.08,0,0,0-3,.86C139.3,184.23,139.34,185.23,139.67,185.23Z" style="fill:#ebebeb"></path><path d="M244.57,109.56c.1.28,134.42,0,132.73,0-.77,0,1.17-1.16.42-1.53-4.38-2.17-9.16-2.23-13.92-2.67a21.49,21.49,0,0,1-8.13-2c-2.54-1.33-4.11-3.63-5.91-5.76a25.26,25.26,0,0,0-22.94-8.69c-9.55,1.5-17.08,8.78-26.64,10.11-5.75.81-11.19-1.42-16.8-2.2a20.58,20.58,0,0,0-12.62,2.31c-3,1.5-5.83,2.76-9.25,3-2.63.19-5.27-.12-7.91-.14A17.7,17.7,0,0,0,242,106.67C241.54,107,240.19,109.56,244.57,109.56Z" style="fill:#ebebeb"></path></g><g id="freepik--Floor--inject-65"><path d="M58.37,451.44c202.85-.62,430.41-.62,633.26,0-202.85.61-430.41.61-633.26,0Z" style="fill:#263238"></path></g><g id="freepik--Character--inject-65"><path d="M644.77,353.15S667,392.38,667,392.41c3.57,7.91,6.55,14.91,7.76,18.68a.11.11,0,0,1,0,.06,6.06,6.06,0,0,1,.51,2.7s0,.06,0,.08c-1.64,2.65-64,33-66.57,33.3s-3.66-6.87-2.17-10,20.19-25.41,20.19-25.41l-21.79-39.39Z" style="fill:#eb9481"></path><path d="M609.66,447c2.53-.33,63.93-30.42,65.57-33.07a.25.25,0,0,0,0-.07,6.06,6.06,0,0,0-.51-2.71l0-.06c-1.21-3.76-4.19-10.77-7.75-18.68,0,0-3.74-6.86-5.23-9.24l-39.69,20.51,4.62,8.17S609,433.91,607.49,437,607.12,447.33,609.66,447Z" style="fill:#ebebeb"></path><path d="M608.52,446.16c2.55-.39,64.72-32.42,66.31-35.14.62-1-3.52-10.36-8.84-21.49a3.78,3.78,0,0,1-.17-.35L625.48,409.4l.36.67S607.53,433,606.1,436.15,606,446.55,608.52,446.16Z" style="fill:#C6C6C6"></path><path d="M608,443.38c10.35-5.65,52.62-27.49,63.28-32.3.08,0,.11,0,0,.07-10.13,5.83-52.58,27.32-63.22,32.4C607.85,443.66,607.76,443.5,608,443.38Z" style="fill:#fff"></path><path d="M622.54,411.93c3.72-2.9,9.09-4.86,13.76-3.55.18.05.1.31,0,.34a65.45,65.45,0,0,0-13.43,3.72A.29.29,0,0,1,622.54,411.93Z" style="fill:#263238"></path><path d="M620.48,415.26c3.73-2.9,9.1-4.86,13.77-3.55.18.05.1.31,0,.34a64.65,64.65,0,0,0-13.43,3.72A.3.3,0,0,1,620.48,415.26Z" style="fill:#263238"></path><path d="M618.43,418.58c3.73-2.89,9.1-4.86,13.76-3.54.18,0,.11.31-.05.33a65.21,65.21,0,0,0-13.42,3.73A.3.3,0,0,1,618.43,418.58Z" style="fill:#263238"></path><path d="M659.14,401.44c3.35-4.58,10.46.61,7.11,5.2S655.79,406,659.14,401.44Z" style="fill:#fff"></path><path d="M623.11,413.51l-4.47,27.91c-5.63,2.8-9.52,4.64-10.12,4.74-2.54.39-3.84-6.84-2.43-10C607.18,433.75,618,420,623.11,413.51Z" style="opacity:0.1"></path><path d="M606.42,444.42c-.89,1,1.28,4.61,2.23,4.5s68.59-35.34,69.61-36.19-1.53-4.77-3-4.29S606.42,444.42,606.42,444.42Z" style="fill:#C6C6C6"></path><path d="M606.42,444.42c-.89,1,1.28,4.61,2.23,4.5s68.59-35.34,69.61-36.19-1.53-4.77-3-4.29S606.42,444.42,606.42,444.42Z" style="opacity:0.4"></path><path d="M661.83,379.5l-44.71,23.88s-56.44-80.44-57.57-101.57C558,272.62,582.91,180,582.91,180l39.75-.27S606.5,275,607.81,291.24C608.5,299.75,661.83,379.5,661.83,379.5Z" style="fill:#263238"></path><path d="M613.22,394.14c2.3-1.66,23.49-13.94,39.63-21.79.11-.05.18.1.09.17-4.9,3.23-36.53,20.56-39.6,21.79C613.23,394.35,613.11,394.21,613.22,394.14Z" style="fill:#37474f"></path><path d="M602.3,270.88c1.84-13.94,3.87-27.87,6.19-41.74s4.78-27.87,7.69-41.69q.54-2.53,1.1-5.06a.21.21,0,0,1,.41.08c-2.45,13.71-5,27.42-7.22,41.17s-4.36,27.53-6.25,41.34c-.46,3.42-.92,6.84-1.36,10.26a92.7,92.7,0,0,0-1,10.65,27.41,27.41,0,0,0,1.71,10,57.39,57.39,0,0,0,4.58,9c7.19,12.17,39.4,65.33,40.23,66.88.06.1-.08.21-.15.11-7.73-12-31.7-50.3-39-62.67-3.29-5.57-7.06-11.22-8.13-17.73C600,284.67,601.41,277.59,602.3,270.88Z" style="fill:#37474f"></path><path d="M613.75,379.5s.45,45.35.45,45.39c-.24,8.67-.61,16.27-1.16,20.18a.15.15,0,0,1,0,.07,6.13,6.13,0,0,1-.72,2.66l0,.05c-2.63,1.68-72,1.78-74.43,1s-.3-7.77,2.39-9.92,29.25-14.07,29.25-14.07l0-45.32Z" style="fill:#eb9481"></path><path d="M614.11,415.57s.09,9.28.09,9.32c-.24,8.67-.61,16.27-1.16,20.18a.15.15,0,0,1,0,.07,11.9,11.9,0,0,1-.72,2.66l0,.05c-2.63,1.68-72,1.78-74.43,1s-.3-7.77,2.39-9.92,29.25-14.07,29.25-14.07v-9.46Z" style="fill:#ebebeb"></path><path d="M537.8,448.74c2.46.78,72.38-.45,75-2.19,1-.64,1.43-10.84,1.57-23.18V423l-45.12.29,0,.77s-26.55,12.44-29.24,14.66S535.34,448,537.8,448.74Z" style="fill:#C6C6C6"></path><path d="M538.54,446c11.79-.49,59.35-1.39,71-1,.09,0,.09.07,0,.07-11.67.75-59.24,1.26-71,1.11C538.3,446.2,538.29,446,538.54,446Z" style="fill:#fff"></path><path d="M565.51,424.24c4.62-.95,10.31-.34,13.91,2.91.14.12,0,.32-.19.27a65.79,65.79,0,0,0-13.69-2.6A.29.29,0,0,1,565.51,424.24Z" style="fill:#263238"></path><path d="M562.19,426.32c4.63-.95,10.31-.34,13.92,2.9.14.13-.05.33-.2.28a65.55,65.55,0,0,0-13.69-2.6A.29.29,0,0,1,562.19,426.32Z" style="fill:#263238"></path><path d="M558.88,428.39c4.62-.95,10.31-.33,13.91,2.91.14.13,0,.32-.19.28a64.91,64.91,0,0,0-13.69-2.6A.3.3,0,0,1,558.88,428.39Z" style="fill:#263238"></path><path d="M536.69,446.25c-1.25.5-.9,4.7,0,5s77.14-1.35,78.43-1.67.74-5-.77-5.16S536.69,446.25,536.69,446.25Z" style="fill:#C6C6C6"></path><path d="M536.69,446.25c-1.25.5-.9,4.7,0,5s77.14-1.35,78.43-1.67.74-5-.77-5.16S536.69,446.25,536.69,446.25Z" style="opacity:0.4"></path><path d="M603,431c5-2.63,9.11,5.18,4.08,7.8S597.94,433.64,603,431Z" style="fill:#fff"></path><path d="M583.41,179.87l0,0c.26.82,14.55,40,15.89,40.59,1.52.71-31.56,56.27-33.51,82.09-1.26,16.51,1.2,110,1.2,110h48.36s-2.32-84-3.43-110.62c-.43-10.32,33.21-61.71,33.62-93.71.13-10.09-7.11-28.52-7.11-28.52Z" style="fill:#263238"></path><path d="M611.67,301.2c0-.43.33-.57.36-.13,1.1,14.41,1.35,28.73,2,43.16s.3,17.86.94,32.25c.36,8.14,0,16.3.21,24.45a.11.11,0,0,1-.21,0C613.51,386.59,611.68,309.36,611.67,301.2Z" style="fill:#37474f"></path><path d="M565.81,303.16a71.18,71.18,0,0,1,1-10.61,53,53,0,0,1,3-9.95c2.67-6.74,5.83-13.31,8.85-19.9s6.18-13.32,9.4-19.91q2.73-5.56,5.48-11.11c1.86-3.73,3.86-7.41,5.8-11.1.08-.14.31,0,.24.11-3.1,6.66-6.16,13.33-9.26,20s-6.15,13.34-9.19,20-6,13.15-8.82,19.79a64.27,64.27,0,0,0-3.45,9.79,56.62,56.62,0,0,0-1.42,10.53c-.47,8.26-.7,16.55-1.51,24.79,0,.1-.18.09-.18,0C565.46,318.13,565.58,310.62,565.81,303.16Z" style="fill:#37474f"></path><path d="M570.51,403c2.81-.36,24.24-1.1,42.17-.34a.09.09,0,0,1,0,.18c-5.84.52-38.85.75-42.14.37C570.42,403.18,570.38,403,570.51,403Z" style="fill:#37474f"></path><path d="M592.64,218.33a93.26,93.26,0,0,1,15.12,5.24.16.16,0,0,1-.11.31c-5.07-1.59-10.24-3.08-15.22-4.94A.32.32,0,0,1,592.64,218.33Z" style="fill:#37474f"></path><path d="M587.76,185.18c0-.17.29-.24.3-.06a161.74,161.74,0,0,0,2.48,16.16c.49,2.48,3.92,16.12,8.16,14.66.71-.24,1-1,1-2.1a17.78,17.78,0,0,0-1-4.19c-.78-2.84-1.47-5.71-2-8.61a80.61,80.61,0,0,1-1.5-16.4.14.14,0,0,1,.28,0,150.74,150.74,0,0,0,3.64,22.47c.91,3.54,3.28,8.78-.42,9.72s-7.19-7.87-7.92-10.3A83.65,83.65,0,0,1,587.76,185.18Z" style="fill:#37474f"></path><path d="M598.62,216.33a23.11,23.11,0,0,1,1.27,2.77,6.55,6.55,0,0,1,.65,2.32c0,.15-.2.19-.29.09a8,8,0,0,1-1.25-2.19c-.42-.85-.86-1.7-1.26-2.57A.49.49,0,0,1,598.62,216.33Z" style="fill:#37474f"></path><path d="M606.71,315.41c-.24-6.87-1-14.08,1.25-20.72a68.28,68.28,0,0,1,4.41-9.41q2.52-4.86,4.94-9.75c6.46-13,12.55-26.31,18-39.82,2.62-6.51,5-13.19,5.9-20.17a62.1,62.1,0,0,0-1.35-21.94c-.41-1.79-.84-3.57-1.33-5.34,0-.13.16-.2.2-.07a72.09,72.09,0,0,1,3.77,21,59,59,0,0,1-3.64,20.05c-2.32,6.75-5.22,13.31-8.08,19.85q-4.43,10.11-9.19,20.05c-3.16,6.6-6.54,13.08-9.88,19.59a35.44,35.44,0,0,0-3.71,9.88,51.59,51.59,0,0,0-.4,10.83c.57,15.21,1.88,65.83,2.08,81l.06,5.78a.13.13,0,0,1-.26,0C608.5,381.08,607.26,330.58,606.71,315.41Z" style="fill:#37474f"></path><path d="M617.56,189.72c0-.1.17-.08.18,0,.57,4.19.9,8.53,2.92,12.33,1.86,3.48,5.09,5.73,8.62,7.3a62.94,62.94,0,0,0,6.28,2.32c.15,0,.11.29,0,.25-4-.83-8.07-1.76-11.55-4-3.72-2.4-5.63-6.25-6.25-10.56A36.8,36.8,0,0,1,617.56,189.72Z" style="fill:#37474f"></path><path d="M582.9,131.38c3.49,28.35,3.16,57.5-2.33,63.87-7.89,9.15-28.25,24.79-42.24,29.85-4.11,1.48-18.1-23.86-14.08-26.24,5.51-3.25,31.38-20.68,31.83-21,1-.74,13-39.41,14.48-47.19C573.19,117,581,116.16,582.9,131.38Z" style="fill:#eb9481"></path><path d="M545.24,221.6c-3.1,2.15-19.73,13.94-24.46,15.4s-18.63,4.66-20.11,1.15,2.51-4.77,2.51-4.77-6.08.42-7.25-3.25,5.11-5.42,5.11-5.42-6.28,0-7.19-3.77,5.71-4.45,5.71-4.45-5.75.25-5.2-3.15c.67-4.08,11.31-3.34,16.41-5.34,1.16-.45,22.81-10.86,22.81-10.86Z" style="fill:#eb9481"></path><path d="M499,216.56c7.83.53,11.35-.59,18.14-4.27.13-.07.27.11.14.2-6.33,4.2-10.53,6.25-18.32,4.45C498.57,216.85,498.62,216.54,499,216.56Z" style="fill:#263238"></path><path d="M500.42,224.65c8.18-.16,12-1.34,19.4-4.67.1,0,.19.13.09.18-7,3.87-11.23,5.82-19.42,4.91C500.12,225,500,224.66,500.42,224.65Z" style="fill:#263238"></path><path d="M503.55,233.2c7.91-.73,12.16-1.85,18.93-6a.14.14,0,0,1,.16.24c-6.49,4.9-11.78,6.34-19,6C503.11,233.41,503.06,233.24,503.55,233.2Z" style="fill:#263238"></path><path d="M536.27,191.51s-9.76-1.21-14.16-.8-20.24,8-18.8,11.52c1.86,4.53,11.87,2,16.61.05,0,0,4.3,10.5,11.88,10.21S536.27,191.51,536.27,191.51Z" style="fill:#eb9481"></path><path d="M504.23,203.31c4.69,2.91,10.74,0,15.48-1.49a.45.45,0,0,1,.61.42c2.09,4.28,6.3,9.71,11.27,10.48a.12.12,0,0,1,0,.23c-5.45-.1-10-5.1-12-9.93-4.83,1.62-11,4.26-15.37.33C504.18,203.33,504.2,203.29,504.23,203.31Z" style="fill:#263238"></path><path d="M532.53,190.05l19.28,30.19s29.72-19.18,31.67-27,3.6-40.86.13-61.13-10.93-12.78-14.44-.09c-3.63,13.12-13.11,45.14-13.59,45.45S532.53,190.05,532.53,190.05Z" style="fill:#455a64"></path><path d="M539.06,188.65c-.06-.09.1-.19.17-.1a278.61,278.61,0,0,1,16.61,25.28c0,.09-.1.19-.17.1A276.5,276.5,0,0,1,539.06,188.65Z" style="fill:#263238"></path><path d="M583.48,193.2c-1.36,5.47-16.18,16.43-25.05,22.58l17.45-95.84c2.92-1.52,5.91,1.41,7.74,12.13C587.08,152.34,585.43,185.34,583.48,193.2Z" style="opacity:0.1"></path><path d="M578,201.67l65.4-11.37a11.61,11.61,0,0,0,.17-9.08c-8-18-33.11-60.93-51.73-66.41-4-1.18-13.35.76-15.56,5.48-5.43,11.58-5.46,59.57-2.89,76.27C573.85,199.86,577.77,201.55,578,201.67Z" style="fill:#455a64"></path><path d="M580.71,129.25c3.77-.37,7.92-7.74,8.8-12.87.06-.35-1.46-3.31-3.14-7-1-2.24-2.08-4.76-2.9-7.13L569.85,111a40,40,0,0,1,4.55,8.61,4.87,4.87,0,0,1,.23,1,1.36,1.36,0,0,0,0,.17C575,122.69,577.07,129.61,580.71,129.25Z" style="fill:#eb9481"></path><path d="M569.84,111a39.78,39.78,0,0,1,4.56,8.62,4.65,4.65,0,0,1,.23,1,.94.94,0,0,0,0,.16,8.25,8.25,0,0,0,1.56-.44c8.58-3.16,7.34-14.7,6.85-17.79Z" style="fill:#263238"></path><path d="M577.75,83.34c3.76,4.45,7.39,20.41,5.16,25.27-3.23,7-11.68,11.2-18.47,6.6-6.57-4.47-10.94-25.35-8.15-30.09C560.39,78.14,572.2,76.77,577.75,83.34Z" style="fill:#eb9481"></path><path d="M584.18,107.2h0" style="fill:none;stroke:#d3766a;stroke-linecap:round;stroke-linejoin:round;stroke-width:0px"></path><path d="M566.91,98.91s.09,0,.1.07c.19,1.08.58,2.29,1.63,2.44a0,0,0,0,1,0,.07C567.42,101.56,566.91,100,566.91,98.91Z" style="fill:#263238"></path><path d="M567.64,97.59c1.69-.49,2.54,2.94,1,3.39S566.21,98,567.64,97.59Z" style="fill:#263238"></path><path d="M560.66,100.44s-.07.07,0,.11c.29,1,.45,2.31-.42,2.9,0,0,0,.07,0,.06C561.34,103.05,561.11,101.39,560.66,100.44Z" style="fill:#263238"></path><path d="M559.44,99.56c-1.74.29-1,3.75.59,3.48S560.9,99.32,559.44,99.56Z" style="fill:#263238"></path><path d="M568.6,95.69a14,14,0,0,1-1.44-.14,2.32,2.32,0,0,1-1.45-.43.74.74,0,0,1-.1-.9,1.85,1.85,0,0,1,1.77-.64,2.73,2.73,0,0,1,1.8.77A.8.8,0,0,1,568.6,95.69Z" style="fill:#263238"></path><path d="M557.69,98.16a13,13,0,0,0,1.27-.69c.49-.27.91-.43,1.17-1a.75.75,0,0,0-.26-.88,1.85,1.85,0,0,0-1.87.11,2.73,2.73,0,0,0-1.37,1.41A.8.8,0,0,0,557.69,98.16Z" style="fill:#263238"></path><path d="M570.35,108c-.13.34-.22.77-.56,1a3,3,0,0,1-1.18.25,0,0,0,0,0,0,.07,1.49,1.49,0,0,0,1.51,0,1.17,1.17,0,0,0,.37-1.24C570.46,108,570.37,108,570.35,108Z" style="fill:#263238"></path><path d="M568.26,105.29a3.75,3.75,0,0,1-2,2.21,4.69,4.69,0,0,1-1.29.38,3.87,3.87,0,0,1-.49.05.27.27,0,0,1-.28-.18h0l-.49-2.29c-.26.23-1.62,1.29-1.7.85A56.15,56.15,0,0,1,560.69,95c0-.12.19-.14.2,0,.78,3.42.94,7,1.66,10.41a7,7,0,0,1,1.58-.94c.07,0,.53,2.83.55,2.85a5.17,5.17,0,0,0,3.46-2.09C568.2,105.14,568.3,105.19,568.26,105.29Z" style="fill:#263238"></path><path d="M577.8,91.08c1.23,1.38,3.92,4.69,4.77,4.68-1.2-5.52-2.91-10.31-5.28-12.77a11.5,11.5,0,0,0-3.42-2.45C574.27,82,576.51,89.64,577.8,91.08Z" style="fill:#263238;opacity:0.2"></path><path d="M561,88.66a5.57,5.57,0,0,0,5.32,1A5.67,5.67,0,0,0,570,85.58c0-.06.1,0,.09,0a5.64,5.64,0,0,1-3.66,4.48,5.72,5.72,0,0,1-5.56-1.32A.06.06,0,1,1,561,88.66Z" style="fill:#263238"></path><path d="M564.32,74.17a8.74,8.74,0,0,1,7.94,2.74,6.21,6.21,0,0,1,1.28,3.9s-.11.06-.12,0a6.81,6.81,0,0,0-4.23-5.54,8.81,8.81,0,0,0-7.84.4,5.6,5.6,0,0,0-2.55,2.87c0,.13-.29.1-.26,0C559.06,76.38,561.44,74.6,564.32,74.17Z" style="fill:#263238"></path><path d="M547.08,84.21a7.06,7.06,0,0,1,2.34-4.27c1.74-1.54,4-1.74,6.19-1.9a.05.05,0,0,1,0,.1,9.89,9.89,0,0,0-5.36,1.55,7,7,0,0,0-2.61,3.9,6.81,6.81,0,0,0,4.21,7.85,6.92,6.92,0,0,0,5.46-.38c.07,0,.14.06.07.09a7,7,0,0,1-9.07-2A7.09,7.09,0,0,1,547.08,84.21Z" style="fill:#263238"></path><path d="M580,87.41s2-6.21-1.09-9c-1.75-1.61-6.44-.53-6.44-.53a8.71,8.71,0,0,0-6.09-2.66c-4.12-.2-8.42,2.94-8.42,2.94s-4.14-1.49-7.3,1.15c-4.42,3.68-2.48,11,2.89,12.58,3.77,1.08,7.94-2.83,7.94-2.83.46,0,5.6,2,8.38-2.81,0,0,3.3,2,5.54-.19A4.21,4.21,0,0,0,580,87.41Z" style="fill:#263238"></path><path d="M579.55,97.9S581,91.71,583.64,92s3,8.34.79,10.33a2.82,2.82,0,0,1-4.07,0Z" style="fill:#eb9481"></path><path d="M583.67,94.33a0,0,0,0,1,0,.06c-1.51,1.46-1.78,3.52-1.74,5.52a1.55,1.55,0,0,1,2-1.27c.06,0,0,.11,0,.12a1.73,1.73,0,0,0-1.54,1.27,8.24,8.24,0,0,0-.27,1.78c0,.19-.35.23-.36,0v0C580.81,99.5,581.3,95.56,583.67,94.33Z" style="fill:#263238"></path><path d="M599.56,118.71c20.84,17.25,39.62,44.62,39.63,60.77,0,12.58-11.67,5.74-14,4.06-7.58-5.55-23.36-33.75-29.87-52C589.43,114.9,594.41,114.44,599.56,118.71Z" style="fill:#455a64"></path><path d="M619.36,180.81c-1.06-2-2.16-4.06-3.19-6.11L613,168.59c-2.08-4.09-4.2-8.16-6.22-12.28s-4.11-8.21-6.1-12.34q-1.52-3.09-2.94-6.22c-1-2.07-1.87-4.18-2.79-6.3a125.3,125.3,0,0,0,4.95,12.88c1.84,4.22,3.85,8.35,5.88,12.48S610,165,612.26,169,616.82,177,619.36,180.81Z" style="fill:#263238"></path><path d="M597.08,136.86a20.79,20.79,0,0,0-1.26-2.12c-.24-.33-.45-.67-.7-1s-.47-.66-.75-1a6.29,6.29,0,0,0,1,2.3A7.08,7.08,0,0,0,597.08,136.86Z" style="fill:#263238"></path><path d="M582.72,167.87a9.17,9.17,0,0,0,9.72-3.72c2.19-3.25,2-7.39,1.37-11.06-.93-5.43-2.48-10.71-2-16.28.38-4.61,1.69-9.71-.54-14.09,0,0,0-.07,0-.1-1.08-4-5.62-5.59-9.3-4.28-4.59,1.62-6.8,6.38-7.75,10.82a64.35,64.35,0,0,0,1.15,30.34C576.4,163.35,578.62,166.85,582.72,167.87Z" style="fill:#C6C6C6"></path><path d="M582.72,167.87a9.17,9.17,0,0,0,9.72-3.72c2.19-3.25,2-7.39,1.37-11.06-.93-5.43-2.48-10.71-2-16.28.38-4.61,1.69-9.71-.54-14.09,0,0,0-.07,0-.1-1.08-4-5.62-5.59-9.3-4.28-4.59,1.62-6.8,6.38-7.75,10.82a64.35,64.35,0,0,0,1.15,30.34C576.4,163.35,578.62,166.85,582.72,167.87Z" style="opacity:0.30000000000000004"></path><g style="opacity:0.1"><path d="M589.15,137.22c.17-6.2-.23-11.83-2.68-17.6a.09.09,0,0,1,.15-.09c6.54,9,1.56,21.91,3.73,32,0,.11-.17.17-.2.05C588.9,146.85,589,142.08,589.15,137.22Z"></path><path d="M588.12,164.8a18.17,18.17,0,0,0,2.46-11.13c0-.07.08-.08.1,0A13.26,13.26,0,0,1,588.4,165C588.29,165.11,588,165,588.12,164.8Z"></path><path d="M576.16,154.82a57.62,57.62,0,0,1-1-14.72c.22-6.25.73-17.94,7.62-20.93.06,0,.11.07.06.1-6.36,4.15-6.73,14.12-7,20.94-.26,8.24,0,18.37,5.28,25.22.12.15-.09.37-.24.24C578.06,163,577,158.5,576.16,154.82Z"></path><path d="M581.75,142.21c-.27-7.49-.39-16,2.67-23a0,0,0,0,1,0,0c-1.31,3.8-1.51,8-1.78,12a103.34,103.34,0,0,0-.13,12.32A116.58,116.58,0,0,0,586,166.25c.07.28-.2.29-.29,0A92.46,92.46,0,0,1,581.75,142.21Z"></path><path d="M579.55,145.54c0-.19.29-.24.3,0a72.83,72.83,0,0,0,3,16.64.13.13,0,0,1-.25.1C580,157.11,579.54,151.19,579.55,145.54Z"></path></g><path d="M590.21,174a9.16,9.16,0,0,0,10.15-2.33c2.61-2.9,3-7,2.9-10.75-.16-5.51-1-11,.27-16.4,1-4.52,3-9.39,1.44-14,0,0,0-.07,0-.11-.51-4.06-4.78-6.32-8.61-5.54-4.77,1-7.62,5.37-9.18,9.63a64.33,64.33,0,0,0-3.12,30.2C584.58,168.59,586.3,172.36,590.21,174Z" style="fill:#C6C6C6"></path><path d="M590.21,174a9.16,9.16,0,0,0,10.15-2.33c2.61-2.9,3-7,2.9-10.75-.16-5.51-1-11,.27-16.4,1-4.52,3-9.39,1.44-14,0,0,0-.07,0-.11-.51-4.06-4.78-6.32-8.61-5.54-4.77,1-7.62,5.37-9.18,9.63a64.33,64.33,0,0,0-3.12,30.2C584.58,168.59,586.3,172.36,590.21,174Z" style="opacity:0.4"></path><g style="opacity:0.1"><path d="M600.86,144.5c1-6.11,1.44-11.75-.18-17.8a.09.09,0,0,1,.16-.07c5.22,9.79-1.52,21.91-.78,32.21a.11.11,0,0,1-.22,0C599.28,154,600.05,149.29,600.86,144.5Z"></path><path d="M596,171.67A18.26,18.26,0,0,0,600,161c0-.07.09-.06.1,0a13.25,13.25,0,0,1-3.84,10.88C596.11,172,595.87,171.82,596,171.67Z"></path><path d="M585.54,160.11a57.23,57.23,0,0,1,1.08-14.71c1.08-6.16,3.23-17.67,10.46-19.66.07,0,.11.08,0,.11-6.87,3.22-8.64,13-9.81,19.75-1.41,8.13-2.56,18.19,1.7,25.71.09.17-.15.36-.28.21C586.28,168.5,585.86,163.87,585.54,160.11Z"></path><path d="M592.84,148.41c.78-7.46,1.86-15.91,5.87-22.38,0,0,0,0,0,0-1.83,3.57-2.62,7.72-3.44,11.63a101.86,101.86,0,0,0-1.86,12.17,117.32,117.32,0,0,0,.21,23c0,.29-.24.26-.28,0A92.42,92.42,0,0,1,592.84,148.41Z"></path><path d="M590.2,151.39c0-.18.31-.19.3,0a72.31,72.31,0,0,0,.62,16.89.14.14,0,0,1-.27.06C589,162.91,589.4,157,590.2,151.39Z"></path></g><path d="M552.17,139.89c2.14.72,10.5,3.81,8.56,6.32-.17.23-1.55.46-1.81.65-1.79,1.19-1.2,3.23.27,4.43,3.07,2.51,7.68,3.27,10.71,5.8,7.15,6,10,10.35,10,10.37s.47.69.57.33c.49-1.7-2.18-17.42-4-23.72-.54-1.83-1.6-5-3.92-5.25-2-.24-1.87,1.58-2.2,3-2.07-1.36-3.56-5.25-4.72-7.17a37.12,37.12,0,0,0-4.2-5.92C559.68,126.77,556,123,553,124c-2.22.72.71,4.33-1.35,5.24-.5.22-1.86-.41-2.74-.57-.34-.06-5.95-2.48-7.57,0C537.35,134.77,548.4,138.62,552.17,139.89Z" style="fill:#37474f"></path><path d="M560.28,138.68a75.34,75.34,0,0,0-14.68-5.19h0a44.55,44.55,0,0,1,13.32,4.09,61.77,61.77,0,0,0-8.78-6.08c-.23-.13-.19-.31,0-.19a65.85,65.85,0,0,1,15.45,11.28,84.53,84.53,0,0,0-9.91-14.23c-.07-.08.07-.22.15-.13,4.33,4.37,8.45,9.63,10.79,15.39a60.18,60.18,0,0,1,9.12,12.08c-.63-3.51-1.14-7-2.11-10.47,0-.14.17-.22.22-.08a40.2,40.2,0,0,1,2.47,11.6,54.07,54.07,0,0,1,3.82,8.79,0,0,0,1,1-.06,0,81.18,81.18,0,0,0-5.17-9.82c-3.85-3.51-9.55-5.51-14.32-7.08,0,0,0-.07,0-.07a35.76,35.76,0,0,1,9.44,3.39,30.73,30.73,0,0,1,3.9,2.27A69.55,69.55,0,0,0,560.28,138.68Z" style="fill:#263238"></path><path d="M600,197c2.7-1.36,16-7.39,16.45-7.95s-7.31-21.37-7.53-23.15-1.95-26.06-1.87-26.45-.95,1.1-1,1.09-.7-1.55-.81-1.64-.68,1.26-.79,1.32-.69-1.38-.85-1.41-1,1.42-1,1.44-1.41-1.77-1.61-1.66-.75,1.45-.9,1.51-.65-1.35-.82-1.41-.53,1.18-.68,1.25-1-1-1.14-1.13-.75,1.16-.9,1.23-.89-1.29-1.12-1.31-.72,1.31-.85,1.3-1-.79-1.27-.83-.63,1.12-.73,1.28-1.27-.85-1.42-.81-.28,1.16-.39,1.21-.93-.76-1-.73,0,1.21-.07,1.26-.79-.82-.9-.87a12.25,12.25,0,0,0-.48,1.92s4.36,26.85,5,29.83S600,197,600,197Z" style="fill:#C6C6C6"></path><path d="M600,197c2.7-1.36,16-7.39,16.45-7.95s-7.31-21.37-7.53-23.15-1.95-26.06-1.87-26.45-.95,1.1-1,1.09-.7-1.55-.81-1.64-.68,1.26-.79,1.32-.69-1.38-.85-1.41-1,1.42-1,1.44-1.41-1.77-1.61-1.66-.75,1.45-.9,1.51-.65-1.35-.82-1.41-.53,1.18-.68,1.25-1-1-1.14-1.13-.75,1.16-.9,1.23-.89-1.29-1.12-1.31-.72,1.31-.85,1.3-1-.79-1.27-.83-.63,1.12-.73,1.28-1.27-.85-1.42-.81-.28,1.16-.39,1.21-.93-.76-1-.73,0,1.21-.07,1.26-.79-.82-.9-.87a12.25,12.25,0,0,0-.48,1.92s4.36,26.85,5,29.83S600,197,600,197Z" style="opacity:0.1"></path><path d="M588.08,141.81c-.08,1.18,6.72,35.65,8,39.31S600.45,196.67,600,197s-27.22,4-27.69,4.27-7.66-30.49-8.22-32.39-6.91-20.11-6.91-20.11a11.72,11.72,0,0,0,2.12,1c.24-.05.84-1.15,1.06-1.69s.93,1,1.2,1.08.94-1.45,1.18-1.71,1.27.92,1.4.94.43-1.65.74-1.77,1.24,1.17,1.56,1.1.62-1.86.87-1.92,1.72,1.17,1.92,1.12.55-2,.83-2.1,1.58,1.51,1.86,1.45.51-2.34.87-2.27,1.52,1.59,1.66,1.46.66-1.67.83-1.85,1.48,1.28,1.6,1.25.59-2.11.71-2.14,1.9,1.71,2,1.58.59-2.11.74-2.2,1.19,1.38,1.32,1.35a14.56,14.56,0,0,0,.55-1.77c0-.06,1,1.19,1,1.17s.27-1.32.37-1.36.72,1,.84,1,.4-1.35.52-1.45.74,1.09.86,1.07.8-1.25.88-1.26.32.75.41.77.86-.89,1-.89S588.08,141.81,588.08,141.81Z" style="fill:#C6C6C6"></path><path d="M637,185.67c-5.52,4.62-16,4.64-44.45,2.63-3.94-.28-9.44-28.6-5.22-28.52,5.31.1,25.92,1.65,27.41,2C627.29,164.3,640.7,182.54,637,185.67Z" style="fill:#eb9481"></path><path d="M596.64,159.21l9.88,32.85s29.77-.36,31.17-7.47c1.27-6.46-11-19.77-20-22.71C613.94,160.65,596.64,159.21,596.64,159.21Z" style="fill:#455a64"></path><path d="M597,160.3l-.27-1.11-.06.07c2.94.38,5.89.73,8.83,1.13s5.87.78,8.77,1.33a33.32,33.32,0,0,1,4.28,1,25.48,25.48,0,0,1,4,1.77,27.79,27.79,0,0,1,6.9,5.48,23.4,23.4,0,0,0-6.58-6,20.87,20.87,0,0,0-4.08-1.93,32.36,32.36,0,0,0-4.36-1.1c-2.94-.53-5.9-.9-8.86-1.2s-5.92-.48-8.89-.56h-.09l0,.07Z" style="fill:#263238"></path><path d="M605.53,163.33c.39,1.67.92,3.32,1.41,5s1,3.3,1.52,4.93c1.06,3.27,2.13,6.54,3.25,9.79.3.89.61,1.78.93,2.66s.8,1.85,1.14,2.8c0,.08.14,0,.11,0-.24-.81-.37-1.65-.6-2.46s-.49-1.69-.75-2.52q-.76-2.46-1.55-4.92c-1-3.27-2.12-6.54-3.28-9.78-.65-1.83-1.26-3.69-2-5.48A.09.09,0,0,0,605.53,163.33Z" style="fill:#263238"></path><path d="M557.13,163.62a4.33,4.33,0,0,0,1.61,4.67,6.42,6.42,0,0,0-2.19,3.78c-.34,2.62,3.62,4.3,3.62,4.3a8,8,0,0,0-1.67,4.35c-.07,2.54,3.68,4.81,3.68,4.81a7,7,0,0,0,.94,4.75c2.49,3.69,9.29,3.46,13.61,3.36s16.49-4.45,18.89-5l-.43-27.75s-19.51-5-24.58-4.21C566.35,157.35,558.18,160.41,557.13,163.62Z" style="fill:#eb9481"></path><path d="M558.92,167.84c4.36-1.84,9-2.3,13.65-3,.1,0,.13.15,0,.16-4.61.67-9,2.23-13.61,3.08A.12.12,0,0,1,558.92,167.84Z" style="fill:#263238"></path><path d="M560.25,176a12.2,12.2,0,0,1,3.18-.56c1.14-.12,2.27-.22,3.41-.3,2.29-.16,4.57-.27,6.86-.32.1,0,.13.16,0,.16-2.27.17-4.54.37-6.81.63l-3.39.42a14.61,14.61,0,0,1-3.22.28C560.14,176.3,560.1,176.06,560.25,176Z" style="fill:#263238"></path><path d="M562.28,185.52a8.66,8.66,0,0,1,2.88-.35l3.12-.17c2.08-.13,4.16-.26,6.24-.46.1,0,.13.15,0,.16-2.1.21-4.21.46-6.32.65l-3.11.28a7.91,7.91,0,0,1-2.83,0A.05.05,0,0,1,562.28,185.52Z" style="fill:#263238"></path><path d="M606.52,192.06c8.28-.83,16.73-1.49,24.77-3.7a14.75,14.75,0,0,0,5.49-2.49c2.81-3,2.07-7.84,1.59-11.64a44.75,44.75,0,0,0-1.47-6.1,31.11,31.11,0,0,1,2.64,12.32c0,3.59-1.43,6.53-4.95,7.8-8.93,3.32-18.66,3.64-28.07,3.81Z" style="fill:#263238"></path></g><g id="freepik--Car--inject-65"><path d="M179.18,236.56s-8.52-3.56-9.8-5.57-6.82-10.42-8.76-10.75c-7.31-1.23-27.26-.48-34,3.12-3.67,2,.2,16.55,3.56,20s27.42,4.13,31.31,3.35,6.75-4.78,6.75-4.78l9.57,2.66Z" style="fill:#C6C6C6"></path><path d="M181.54,225.82s-6.48.94-8,2.3-6.48,12.23-6.17,16,4.28,7.63,4.28,7.63Z" style="fill:#C6C6C6"></path><path d="M181.54,225.82s-6.48.94-8,2.3-6.48,12.23-6.17,16,4.28,7.63,4.28,7.63Z" style="opacity:0.1"></path><path d="M497.86,236.56s8.53-3.56,9.81-5.57,6.82-10.42,8.76-10.75c7.31-1.23,27.26-.48,34,3.12,3.67,2-.2,16.55-3.56,20s-27.42,4.13-31.31,3.35-6.76-4.78-6.76-4.78l-9.57,2.66Z" style="fill:#C6C6C6"></path><path d="M495.5,225.82s6.48.94,8.05,2.3,6.48,12.23,6.17,16-4.29,7.63-4.29,7.63Z" style="fill:#C6C6C6"></path><path d="M495.5,225.82s6.48.94,8.05,2.3,6.48,12.23,6.17,16-4.29,7.63-4.29,7.63Z" style="opacity:0.1"></path><rect x="129.97" y="323.86" width="61.32" height="127.89" rx="11.25" style="fill:#263238"></rect><path d="M150.24,286.9s-14.22,7.25-17.56,13.94,0,75.81,0,81.11,10.3,39.86,12.26,43.48,29,7.81,29,7.81Z" style="fill:#C6C6C6"></path><path d="M150.24,286.9s-14.22,7.25-17.56,13.94,0,75.81,0,81.11,10.3,39.86,12.26,43.48,29,7.81,29,7.81Z" style="opacity:0.1"></path><rect x="485.77" y="323.86" width="61.32" height="127.89" rx="11.25" transform="translate(1032.85 775.6) rotate(180)" style="fill:#263238"></rect><path d="M526.81,286.9s14.22,7.25,17.56,13.94,0,75.81,0,81.11-10.3,39.86-12.26,43.48-29,7.81-29,7.81Z" style="fill:#C6C6C6"></path><path d="M526.81,286.9s14.22,7.25,17.56,13.94,0,75.81,0,81.11-10.3,39.86-12.26,43.48-29,7.81-29,7.81Z" style="opacity:0.1"></path><path d="M532.34,401.88c-.14,1.81-6.28,27.74-8.79,30.38S470.87,437,467.8,437s-12.67-5.43-14.48-5.85S350.83,431,338.53,431s-113-.29-114.79.14S212.31,437,209.24,437s-53.23-2.09-55.75-4.74-8.64-28.57-8.78-30.38,1.82-8.22,1.82-9.62-1.5-98.49-1.09-100.38,4.39-15.05,6.18-17.87,17.66-22.89,18.08-24.15c9.77-29.32,37.1-72.22,41.29-76a27.42,27.42,0,0,1,13.9-6.59c4.18-.51,60.73-2.6,113.64-2.6s109.46,2.09,113.63,2.6a27.48,27.48,0,0,1,13.91,6.59c4.17,3.77,31.5,46.67,41.28,76,.42,1.26,16.31,21.33,18.08,24.15s5.75,16,6.16,17.87-1.06,99-1.06,100.38S532.48,400.07,532.34,401.88Z" style="fill:#C6C6C6"></path><path d="M520.17,384.59c0,1.68-2.27,14.69-3.74,15.05-40.37,10.05-137.33,18.48-177.9,17.82-40.58.66-137.54-7.77-177.91-17.82-1.47-.36-3.73-13.37-3.73-15.05s1.67-20.2,3.73-20.76,44.77,7.12,80.68,11.89a759.28,759.28,0,0,0,97.23,6,759.32,759.32,0,0,0,97.22-6c35.9-4.77,78.61-12.45,80.68-11.89S520.17,382.92,520.17,384.59Z" style="opacity:0.1"></path><path d="M480.72,369.05,467,408.15c-44.76,5.84-100.25,9.77-128.46,9.31-28.21.46-83.68-3.47-128.44-9.31l-13.75-39.1c13.89,2.19,30,4.68,45,6.67a759.16,759.16,0,0,0,97.22,6,759.43,759.43,0,0,0,97.23-6C450.7,373.73,466.84,371.24,480.72,369.05Z" style="fill:#fff;opacity:0.5"></path><path d="M435.75,375.72c.2.93-7.52,16.27-13.34,25.39-1.73,2.72-10.08,9-12,9.41s-26,6.94-71.86,6.94-69.91-6.53-71.87-6.94-10.29-6.69-12-9.41c-5.82-9.12-13.54-24.46-13.34-25.39s29,6,97.23,6S435.58,374.79,435.75,375.72Z" style="fill:#263238"></path><circle cx="178.27" cy="384.39" r="8.47" transform="translate(-133.53 97.48) rotate(-22.5)" style="fill:#fff"></circle><path d="M172.28,378.4c5.32-5.54,15.28-1.84,15.53,6a9.24,9.24,0,0,1-9.54,9.55c-7.84-.25-11.53-10.22-6-15.54Zm0,0a7.9,7.9,0,0,0,.45,11.53c7.48,6,17.1-3.61,11.08-11.09a7.91,7.91,0,0,0-11.53-.44Z" style="fill:#dbdbdb"></path><circle cx="497.86" cy="384.39" r="8.47" transform="matrix(0.97, -0.25, 0.25, 0.97, -80.41, 136.97)" style="fill:#fff"></circle><path d="M503.85,378.4a7.91,7.91,0,0,0-11.53.44c-6,7.48,3.61,17.11,11.08,11.09a7.9,7.9,0,0,0,.45-11.53Zm0,0c5.54,5.32,1.85,15.29-6,15.54a9.24,9.24,0,0,1-9.54-9.55c.25-7.83,10.21-11.53,15.53-6Z" style="fill:#dbdbdb"></path><path d="M499.72,248.44s-75.54,3.31-161.19,3.31-161.2-3.31-161.2-3.31c15.46-38.75,35.68-68.71,37.91-70.38s10.17-4.6,12.39-5.16c9.5-2.37,77.35-2.79,110.9-2.79s101.38.42,110.88,2.79c2.23.56,10.18,3.49,12.41,5.16S484.26,209.69,499.72,248.44Z" style="fill:#455a64"></path><path d="M499.72,248.44s-75.54,3.31-161.19,3.31-161.2-3.31-161.2-3.31c1.46-3.64,2.95-7.22,4.46-10.69,17.39.7,83.35,3.12,156.74,3.12s139.34-2.42,156.73-3.12C496.77,241.22,498.26,244.8,499.72,248.44Z" style="fill:#263238"></path><g style="opacity:0.7000000000000001"><path d="M313.56,216.6H208.09a6.13,6.13,0,0,0-6.05,5.17l-2.7,17a6.12,6.12,0,0,0,6,7.08H316.26a6.12,6.12,0,0,0,6.05-7.08l-2.7-17A6.13,6.13,0,0,0,313.56,216.6Z" style="fill:#263238"></path><rect x="223.46" y="196.87" width="74.73" height="26.34" rx="3.85" style="fill:#263238"></rect></g><g style="opacity:0.7000000000000001"><path d="M469,216.6H363.49a6.13,6.13,0,0,0-6.05,5.17l-2.7,17a6.12,6.12,0,0,0,6.05,7.08H471.66a6.12,6.12,0,0,0,6-7.08l-2.7-17A6.13,6.13,0,0,0,469,216.6Z" style="fill:#263238"></path><rect x="378.86" y="196.87" width="74.73" height="26.34" rx="3.85" style="fill:#263238"></rect></g><polygon points="468.49 244.76 363.96 244.76 373.96 230.53 416.22 228.28 458.48 230.53 468.49 244.76" style="fill:#263238"></polygon><path d="M416.22,208.9a24.45,24.45,0,0,0-24.42,24.43A24.4,24.4,0,0,0,399.38,251l8.44-.17a19.4,19.4,0,0,1-11-17.49,19.4,19.4,0,1,1,37.84,6,19.45,19.45,0,0,1-9.26,11.12l8.46-.23a24.25,24.25,0,0,0,6.07-11,23.84,23.84,0,0,0,.7-5.82A24.45,24.45,0,0,0,416.22,208.9Z" style="fill:#263238"></path><polygon points="416.72 236.19 398.42 221.68 401.54 217.74 416.72 229.78 431.91 217.74 435.03 221.68 416.72 236.19" style="fill:#263238"></polygon><g style="opacity:0.1"><path d="M311.7,170.19l-80,80.05c-7-.18-13.45-.37-19.31-.54l79.33-79.34C298.45,170.29,305.22,170.23,311.7,170.19Z" style="fill:#fff"></path><path d="M464.43,181.3l-70,70c-6.54.09-13.27.18-20.12.25l77.81-77.81c3.29,1.13,8.06,3.07,9.71,4.3A23.4,23.4,0,0,1,464.43,181.3Z" style="fill:#fff"></path><path d="M494,234.89l-14.33,14.32c-5.79.2-12.69.43-20.51.65l28.46-28.46C489.74,225.68,491.87,230.19,494,234.89Z" style="fill:#fff"></path><path d="M285.34,170.44,206.28,249.5l-3-.09,78.94-78.93Z" style="fill:#fff"></path><path d="M381,170.33l-81.22,81.2-3,0L378,170.29C379,170.3,380,170.3,381,170.33Z" style="fill:#fff"></path><path d="M483.83,214l-36.24,36.24-3.14.09L482.77,212Z" style="fill:#fff"></path><path d="M242.11,171.57,186.73,227c2.29-4.81,4.59-9.38,6.83-13.65L234.85,172C236.94,171.85,239.38,171.7,242.11,171.57Z" style="fill:#fff"></path><path d="M407.71,170.7l-81,81-6.79,0L401,170.58C403.28,170.61,405.52,170.67,407.71,170.7Z" style="fill:#fff"></path></g><path d="M177.33,248.44c-3.52,8.21-8.34,15.89-13.23,23.34l-.52.79c-.26.86.73,2.64,1.25,3.56.75,1.34,1.62,2.62,2.48,3.94-2.11-1.67-7-5.8-5.3-8.8a124.83,124.83,0,0,1,15.32-22.83Z" style="opacity:0.1"></path><path d="M499.72,248.44a125.39,125.39,0,0,1,15.33,22.83c1.7,3-3.2,7.12-5.31,8.8.86-1.32,1.74-2.6,2.48-3.94.52-.91,1.52-2.7,1.25-3.56-.12-.2-.39-.59-.52-.79-4.89-7.45-9.71-15.12-13.23-23.34Z" style="opacity:0.1"></path><path d="M529.08,311.65c0,1.77-.08,11.93-1.46,12.76-3.86,2.31-20.89,7.7-31.52,9.67-49.74,9.17-122,14.34-157.57,13.75-35.54.59-107.84-4.58-157.58-13.75-10.62-2-27.66-7.36-31.52-9.67-1.38-.83-1.46-11-1.46-12.76s11.83-25.41,14-26,26.76,13.38,67.91,20.79c42.19,7.59,108.62,7.79,108.62,7.79s66.42-.2,108.61-7.79c41.15-7.41,65.71-20.13,67.91-19.53S529.08,309.87,529.08,311.65Z" style="opacity:0.1"></path><path d="M527.62,324.41c-14.19,7.57-30,11.52-45.75,14.23Q458.23,343,434.4,346c-31.8,4-63.77,7.2-95.87,7.15-52.09-.44-104-6.95-155.14-16.8a131.4,131.4,0,0,1-34-11.93,141.84,141.84,0,0,0,34.3,10.07c51.24,7.4,103,13.36,154.8,13.63,31.86.19,63.71-2.86,95.41-6,15.87-1.71,31.73-3.6,47.53-5.88,7.88-1.16,15.82-2.05,23.52-4.13s15.4-4.32,22.63-7.69Z" style="fill:#fff;opacity:0.5"></path><path d="M171,280.94c8.58.79,49.3,26.08,51,28.16s5.84,23,3.28,25-33.35,1-42.62-.48-28.43-6.69-32.74-10-1-26.69,3.23-31.38C158.65,286.26,165.54,280.43,171,280.94Z" style="fill:#fff"></path><path d="M171,280.94a28.15,28.15,0,0,1,6.39,2.1c6.19,2.7,12.11,6,18,9.19,8.84,4.95,17.71,9.9,26.13,15.59a5.13,5.13,0,0,1,2.06,3.08,65.72,65.72,0,0,1,1.77,6.6,64.58,64.58,0,0,1,1.8,13.59c-.07,2.62-.51,4.36-3.38,4.71-7.35,1.07-14.77.68-22.14.54-6.79-.33-13.6-.55-20.32-1.75-10-2-19.9-4.7-29.21-8.89a11.09,11.09,0,0,1-3-2c-2.5-4-1.61-9.18-1.32-13.63.89-6,1.7-12.59,5.18-17.76,4.74-4.82,10.78-11.48,18-11.39Zm0,0c-6.91,0-12.2,5.71-16.73,10.3A13.1,13.1,0,0,0,151,297a59.67,59.67,0,0,0-2.42,13.18,37.57,37.57,0,0,0,.32,9.94c.36,1.65.84,2.91,2.37,3.63,7.53,3.62,15.83,5.38,23.92,7.3,8.7,2.1,17.65,2.47,26.57,2.8,4.47.18,9,.28,13.42.22,3.09-.12,6.49.05,9.41-.77a1.53,1.53,0,0,0,.27-.77c.58-4.79-.36-9.79-1.15-14.67a44.47,44.47,0,0,0-2-8c-.14-.39-.56-.62-.94-1-8.16-5.91-16.8-11.19-25.47-16.37a183.78,183.78,0,0,0-17.88-9.45,27.64,27.64,0,0,0-6.37-2.15Z" style="fill:#dbdbdb"></path><path d="M192.18,312.13c.11,10.14-12.36,15.7-19.86,8.67a12,12,0,0,1,0-17.35c7.5-7,20-1.46,19.87,8.68Zm0,0c.06-9.57-12-14.2-18.33-7.14a10.59,10.59,0,0,0,0,14.29c6.31,7.07,18.4,2.42,18.34-7.15Z" style="fill:#dbdbdb"></path><path d="M215,319.55c.17,8.58-10.62,13.48-17,7.47a10.27,10.27,0,0,1,0-14.95c6.34-6,17.14-1.1,17,7.48Zm0,0c0-8.11-10.13-11.93-15.43-5.94-5,5.25-1.31,14.4,5.94,14.81a8.94,8.94,0,0,0,9.49-8.87Z" style="fill:#dbdbdb"></path><path d="M167.3,301.66c-1.31,3.81-2.71,22.34-2,24.79a13.3,13.3,0,0,0,2.42,3.79c-7.68-2.08-15.22-4.65-17.74-6.59-4.31-3.31-1-26.69,3.24-31.37,5.43-6,12.33-11.86,17.83-11.34,1.94.18,5.54,1.62,10,3.76C181,284.7,168.6,297.85,167.3,301.66Z" style="fill:#C6C6C6"></path><path d="M167.3,301.66c-1.31,3.8-2.71,22.34-2,24.79a13.3,13.3,0,0,0,2.42,3.79c-7.68-2.08-15.22-4.65-17.74-6.59-4.31-3.31-1-26.69,3.24-31.38,5.43-6,12.33-11.85,17.83-11.33,1.94.18,5.54,1.61,10,3.76C181,284.7,168.6,297.85,167.3,301.66Z" style="opacity:0.2"></path><path d="M506,280.94c-8.57.79-49.3,26.08-51,28.16s-5.84,23-3.27,25,33.34,1,42.61-.48,28.43-6.69,32.75-10,1-26.69-3.24-31.38C518.4,286.26,511.51,280.43,506,280.94Z" style="fill:#fff"></path><path d="M506,280.94a27.64,27.64,0,0,0-6.37,2.15,183.78,183.78,0,0,0-17.88,9.45c-8.66,5.18-17.31,10.46-25.47,16.37-.38.35-.8.58-.93,1a43.67,43.67,0,0,0-2.05,8c-.79,4.88-1.73,9.88-1.15,14.67.07.46.3.89.28.77a5.59,5.59,0,0,0,1.18.29c7.14.84,14.44.45,21.64.26,8.92-.33,17.87-.7,26.57-2.8,8.09-1.92,16.39-3.68,23.92-7.3,1.52-.72,2-2,2.37-3.63a36.74,36.74,0,0,0,.32-9.94A59.1,59.1,0,0,0,526,297a13.06,13.06,0,0,0-3.28-5.74c-4.52-4.59-9.82-10.31-16.73-10.3Zm0,0c7.27-.1,13.29,6.57,18,11.39,3.48,5.17,4.29,11.71,5.19,17.76.28,4.48,1.17,9.58-1.33,13.63a11.09,11.09,0,0,1-3,2c-9.31,4.19-19.23,6.84-29.21,8.89-11.21,1.79-22.55,2-33.87,1.87a60.6,60.6,0,0,1-8.59-.66,5.65,5.65,0,0,1-2-.68,3.22,3.22,0,0,1-1.17-2.18c-.6-5.24.64-10.36,1.62-15.44a65.72,65.72,0,0,1,1.77-6.6,5.16,5.16,0,0,1,2.06-3.08c8.42-5.69,17.29-10.64,26.13-15.59,5.92-3.23,11.84-6.49,18-9.19a27.67,27.67,0,0,1,6.39-2.1Z" style="fill:#dbdbdb"></path><path d="M484.87,312.13c-.06,9.57,12,14.22,18.34,7.15a10.59,10.59,0,0,0,0-14.29c-6.3-7.06-18.38-2.43-18.33,7.14Zm0,0c-.11-10.14,12.37-15.71,19.87-8.68a12,12,0,0,1,0,17.35c-7.49,7-20,1.47-19.86-8.67Z" style="fill:#dbdbdb"></path><path d="M462.09,319.55a8.94,8.94,0,0,0,9.49,8.87c10.9-1.08,10.9-16.65,0-17.73a8.94,8.94,0,0,0-9.49,8.86Zm0,0c-.17-8.58,10.63-13.49,17-7.48a10.27,10.27,0,0,1,0,14.95c-6.34,6-17.13,1.11-17-7.47Z" style="fill:#dbdbdb"></path><path d="M509.75,301.66c1.31,3.81,2.71,22.34,2,24.79a13.3,13.3,0,0,1-2.42,3.79c7.68-2.08,15.22-4.65,17.74-6.59,4.31-3.31,1-26.69-3.24-31.37-5.43-6-12.33-11.86-17.83-11.34-1.93.18-5.54,1.62-9.94,3.76C496.07,284.7,508.45,297.85,509.75,301.66Z" style="fill:#C6C6C6"></path><path d="M509.75,301.66c1.31,3.8,2.71,22.34,2,24.79a13.3,13.3,0,0,1-2.42,3.79c7.68-2.08,15.22-4.65,17.74-6.59,4.31-3.31,1-26.69-3.24-31.38-5.43-6-12.33-11.85-17.83-11.33-1.93.18-5.54,1.61-9.94,3.76C496.07,284.7,508.45,297.85,509.75,301.66Z" style="opacity:0.2"></path><path d="M447.14,306.43c.22.93-10.13,23.18-12,25.91s-10.86,7.42-13,7.83-34.27,6.94-83.63,6.94-81.55-6.52-83.65-6.94-11.08-5.11-12.95-7.83-12.24-25-12-25.91,31.14,5.1,49.85,5.83c9.2.37,38.05,2,58.77,2s49.56-1.59,58.76-2C416,311.53,446.94,305.5,447.14,306.43Z" style="fill:#37474f"></path><path d="M250.26,309.07c4.22.6,8.73,1.23,13.21,1.76H231.59c-.29-.64-.54-1.23-.75-1.76Zm176.53,0c-4.21.6-8.73,1.23-13.2,1.76h31.87c.29-.64.54-1.23.75-1.76Zm-69,4.83c-6.64.18-13.26.32-19.22.32s-12.59-.14-19.23-.32H232.94c.25.56.51,1.14.79,1.74H443.32c.28-.6.54-1.18.79-1.74Zm-122.61,4.81c.26.59.54,1.17.82,1.75H441.1c.27-.58.55-1.16.81-1.75Zm2.26,4.82.86,1.76H438.79l.86-1.76Zm2.35,4.81.91,1.76H436.39l.91-1.76Zm2.88,4.82a18.57,18.57,0,0,0,2.18,1.76H432.24a17.77,17.77,0,0,0,2.18-1.76Zm7.28,4.83a38.75,38.75,0,0,0,3.66,1.74h169.9a37.64,37.64,0,0,0,3.67-1.74Zm21.19,4.81c4.21.58,9.18,1.18,14.85,1.75H391.11c5.67-.57,10.63-1.17,14.84-1.75Z" style="fill:#455a64"></path><rect x="297.32" y="362.37" width="82.42" height="22.02" style="fill:#fff"></rect></g></svg>