<svg width="188" height="45" viewBox="0 0 188 45" fill="none" xmlns="http://www.w3.org/2000/svg">
<path d="M1.112 36C0.44 36 0.104 35.712 0.104 35.136C0.104 34.88 0.184 34.56 0.344 34.176L12.536 4.992C12.792 4.384 13.064 3.968 13.352 3.744C13.672 3.488 14.136 3.36 14.744 3.36H19.112C19.72 3.36 20.168 3.488 20.456 3.744C20.776 3.968 21.064 4.384 21.32 4.992L33.512 34.176C33.672 34.56 33.752 34.864 33.752 35.088C33.752 35.376 33.656 35.6 33.464 35.76C33.304 35.92 33.064 36 32.744 36H25.304C24.856 36 24.504 35.92 24.248 35.76C23.992 35.568 23.784 35.264 23.624 34.848L21.944 30.24H11.864L10.232 34.848C10.072 35.264 9.864 35.568 9.608 35.76C9.352 35.92 8.984 36 8.504 36H1.112ZM19.832 23.712L16.904 15.552L13.976 23.712H19.832ZM39.4194 36C38.4914 36 37.8354 35.808 37.4514 35.424C37.0994 35.04 36.9234 34.432 36.9234 33.6V5.808C36.9234 4.976 37.1154 4.368 37.4994 3.984C37.8834 3.568 38.5234 3.36 39.4194 3.36H44.0754C45.0034 3.36 45.6594 3.568 46.0434 3.984C46.4274 4.368 46.6194 4.976 46.6194 5.808V33.6C46.6194 34.432 46.4274 35.04 46.0434 35.424C45.6594 35.808 45.0034 36 44.0754 36H39.4194ZM59.3435 36.72C56.5595 36.72 54.3835 36 52.8155 34.56C51.2795 33.088 50.5115 30.848 50.5115 27.84V15.408C50.5115 14.576 50.7035 13.968 51.0875 13.584C51.4715 13.168 52.1115 12.96 53.0075 12.96H57.6635C58.5915 12.96 59.2475 13.168 59.6315 13.584C60.0155 13.968 60.2075 14.576 60.2075 15.408V27.456C60.2075 29.28 61.0875 30.192 62.8475 30.192C63.8075 30.192 64.5435 29.936 65.0555 29.424C65.5675 28.912 65.8235 28.192 65.8235 27.264V15.408C65.8235 14.576 66.0155 13.968 66.3995 13.584C66.7835 13.168 67.4395 12.96 68.3675 12.96H73.0235C73.9515 12.96 74.6075 13.168 74.9915 13.584C75.3755 13.968 75.5675 14.576 75.5675 15.408V34.512C75.5675 35.12 75.4555 35.52 75.2315 35.712C75.0395 35.904 74.6075 36 73.9355 36H68.9915C68.6075 36 68.3035 35.952 68.0795 35.856C67.8875 35.76 67.7755 35.568 67.7435 35.28L67.5035 33.792C66.5755 34.688 65.4235 35.408 64.0475 35.952C62.6715 36.464 61.1035 36.72 59.3435 36.72ZM91.5943 44.16C89.6743 44.16 87.7063 43.936 85.6903 43.488C83.7063 43.072 82.2343 42.528 81.2743 41.856C81.0503 41.664 80.9383 41.456 80.9383 41.232C80.9383 41.072 80.9863 40.912 81.0823 40.752L83.1463 36.96C83.2423 36.8 83.3383 36.656 83.4343 36.528C83.5623 36.432 83.6903 36.384 83.8183 36.384C83.8823 36.384 84.0743 36.448 84.3943 36.576C85.8983 37.344 87.9783 37.728 90.6343 37.728C92.1383 37.728 93.2743 37.408 94.0423 36.768C94.8103 36.128 95.1943 35.088 95.1943 33.648C94.5543 34.096 93.7543 34.464 92.7943 34.752C91.8343 35.008 90.8103 35.136 89.7223 35.136C85.9143 35.136 83.0023 34.192 80.9863 32.304C79.0023 30.416 78.0103 27.68 78.0103 24.096C78.0103 20.192 79.2263 17.248 81.6583 15.264C84.0903 13.248 87.6903 12.24 92.4583 12.24C94.8583 12.24 97.1463 12.576 99.3223 13.248C101.498 13.92 103.306 14.768 104.746 15.792V31.104C104.746 35.008 103.626 38.16 101.386 40.56C99.1463 42.96 95.8823 44.16 91.5943 44.16ZM91.8343 28.368C94.1383 28.368 95.2903 27.264 95.2903 25.056V19.248C94.6183 18.96 93.4983 18.816 91.9303 18.816C90.5223 18.816 89.4503 19.168 88.7143 19.872C88.0103 20.576 87.6583 21.84 87.6583 23.664C87.6583 25.296 87.9943 26.496 88.6663 27.264C89.3383 28 90.3943 28.368 91.8343 28.368ZM117.853 36.72C114.845 36.72 112.429 35.76 110.605 33.84C108.813 31.888 107.917 29.152 107.917 25.632C107.917 22.944 108.525 20.592 109.741 18.576C110.989 16.56 112.733 15.008 114.973 13.92C117.245 12.8 119.853 12.24 122.797 12.24C125.229 12.24 127.373 12.512 129.229 13.056C131.117 13.568 132.845 14.32 134.413 15.312V34.512C134.413 35.12 134.301 35.52 134.077 35.712C133.853 35.904 133.405 36 132.733 36H127.837C127.485 36 127.213 35.952 127.021 35.856C126.829 35.728 126.669 35.536 126.541 35.28L125.917 33.84C124.989 34.832 123.869 35.552 122.557 36C121.277 36.48 119.709 36.72 117.853 36.72ZM121.453 30.192C122.701 30.192 123.677 29.888 124.381 29.28C125.085 28.672 125.437 27.808 125.437 26.688V19.2C124.829 18.912 124.061 18.768 123.133 18.768C121.437 18.768 120.077 19.36 119.053 20.544C118.061 21.728 117.565 23.392 117.565 25.536C117.565 28.64 118.861 30.192 121.453 30.192ZM138.596 36C137.924 36 137.588 35.712 137.588 35.136C137.588 34.88 137.668 34.56 137.828 34.176L150.02 4.992C150.276 4.384 150.548 3.968 150.836 3.744C151.156 3.488 151.62 3.36 152.228 3.36H156.596C157.204 3.36 157.652 3.488 157.94 3.744C158.26 3.968 158.548 4.384 158.804 4.992L170.996 34.176C171.156 34.56 171.236 34.864 171.236 35.088C171.236 35.376 171.14 35.6 170.948 35.76C170.788 35.92 170.548 36 170.228 36H162.788C162.34 36 161.988 35.92 161.732 35.76C161.476 35.568 161.268 35.264 161.108 34.848L159.428 30.24H149.348L147.716 34.848C147.556 35.264 147.348 35.568 147.092 35.76C146.836 35.92 146.468 36 145.988 36H138.596ZM157.316 23.712L154.388 15.552L151.46 23.712H157.316ZM176.28 10.032C175.192 10.032 174.648 9.632 174.648 8.832C174.648 8.576 174.696 8.336 174.792 8.112L176.904 2.304C177.128 1.664 177.384 1.232 177.672 1.008C177.992 0.783998 178.568 0.671997 179.4 0.671997H185.16C185.736 0.671997 186.184 0.783998 186.504 1.008C186.856 1.2 187.032 1.488 187.032 1.872C187.032 2.224 186.92 2.576 186.696 2.928L183.576 8.448C183.192 9.088 182.824 9.52 182.472 9.744C182.12 9.936 181.48 10.032 180.552 10.032H176.28ZM177.24 36C176.312 36 175.656 35.808 175.272 35.424C174.92 35.04 174.744 34.432 174.744 33.6V15.408C174.744 14.576 174.936 13.968 175.32 13.584C175.704 13.168 176.344 12.96 177.24 12.96H181.896C182.824 12.96 183.48 13.168 183.864 13.584C184.248 13.968 184.44 14.576 184.44 15.408V33.6C184.44 34.432 184.248 35.04 183.864 35.424C183.48 35.808 182.824 36 181.896 36H177.24Z" fill="#FAFAFA"/>
</svg>
